<svg xmlns="http://www.w3.org/2000/svg" viewBox="0 0 216.1 118.63"><defs><style>.cls-1{fill:#015191;}.cls-2{fill:#559ed0;}.cls-3{fill:#fcb254;}.cls-4{fill:#fc473f;}.cls-5{fill:#0d5996;}.cls-6{fill:#0d5a96;}.cls-7{fill:#085694;}.cls-8{fill:#0a5795;}.cls-9{fill:#0b5895;}.cls-10{fill:#0e5a96;}.cls-11{fill:#0e5a97;}.cls-12{fill:#6495bc;}.cls-13{fill:#fafbfc;}.cls-14{fill:#f6f8fa;}.cls-15{fill:#f8fafb;}.cls-16{fill:#f6f9fb;}.cls-17{fill:#f7f9fb;}.cls-18{fill:#fcfdfd;}.cls-19{fill:#f1f5f7;}</style></defs><title>211 logo</title><g id="Layer_2" data-name="Layer 2"><g id="Layer_1-2" data-name="Layer 1"><path class="cls-1" d="M15.12,76.47l-1-1.07-.66-.83C7,68,2.31,60.3.74,51.11-1.61,37.33,1.58,24.92,11,14.32A42.53,42.53,0,0,1,35,.67,33.85,33.85,0,0,1,41.42,0q58.5,0,117,0c9.25,0,17.5,3.32,24.84,8.91A46.29,46.29,0,0,1,194.41,21.6l.65.94,0,0,.5.53h0a10.25,10.25,0,0,0,.48,1.85,46.24,46.24,0,0,1,4,19.23,125.08,125.08,0,0,0,1.52,20.27c1.26,7.52,3.1,14.82,7,21.5a55.58,55.58,0,0,1-6.6-.54,35.48,35.48,0,0,1-13.31-5.44,10.83,10.83,0,0,0-2.46-1l-2.16-2.37c-.75.51-1.43,1-2.09,1.43a43.3,43.3,0,0,1-25.63,8q-56.49,0-113,0a44.09,44.09,0,0,1-26.35-8.88A6.71,6.71,0,0,0,15.12,76.47ZM60,57.1a9.38,9.38,0,0,1,.69-1c2.66-3,5.36-5.91,8-8.91A67,67,0,0,0,73,41.76a14.64,14.64,0,0,0,2.5-10.65,10.43,10.43,0,0,0-6.23-8.67,19.82,19.82,0,0,0-12.84-1.09c-6.58,1.48-11.49,7.9-11,14.17h9.85c.69-3.28,1.15-4.36,2.34-5.51A4.45,4.45,0,0,1,65.06,32a7,7,0,0,1-.73,6,44.23,44.23,0,0,1-4.43,6c-4,4.42-8.26,8.67-12.36,13a4.53,4.53,0,0,0-1.28,2.31c-.18,1.86-.06,3.76-.06,5.62,5.5.41,28.6.24,30.31-.18V57.1Zm92.38,7.79V21.15c-6.91,2.2-13.47,4.63-20.17,6.89,0,1.41,0,2.65,0,3.89a10.49,10.49,0,0,0,.31,3.83l9.7-2.68V64.89ZM101.71,33V64.91h10.2V21.42c-3.7.42-6.85,2.14-10.2,3.17S95,26.91,91.86,28v7.76Zm-10.58,15a3.71,3.71,0,0,0-3.73-4,4,4,0,0,0-4.28,3.89A4.37,4.37,0,0,0,87,52C88.9,52.14,91.43,50.43,91.13,48.05Zm38.5-.12A3.59,3.59,0,0,0,125.82,44a4,4,0,0,0-4.18,4,4.25,4.25,0,0,0,4,4A3.85,3.85,0,0,0,129.63,47.93Z"/><path class="cls-2" d="M15.12,76.47a6.71,6.71,0,0,1,1.77.68A44.09,44.09,0,0,0,43.24,86q56.49,0,113,0a43.3,43.3,0,0,0,25.63-8c.66-.47,1.34-.92,2.09-1.43L186.09,79a3.78,3.78,0,0,0,.31.64l4.82,6.3a34.86,34.86,0,0,1-9.81,6.1c-4.15,1.89-8.6,2.66-13,3.43a13,13,0,0,1-2.25.06q-58.61,0-117.22,0A39.34,39.34,0,0,1,33.59,92,40.92,40.92,0,0,1,18.77,81.4C17.41,79.88,16.33,78.12,15.12,76.47Z"/><path class="cls-3" d="M208.46,85.89c-3.85-6.68-5.69-14-7-21.5A125.08,125.08,0,0,1,200,44.12a46.24,46.24,0,0,0-4-19.23,10.25,10.25,0,0,1-.48-1.85,40,40,0,0,1,3.12,3.4,41.77,41.77,0,0,1,8,17.82,55.89,55.89,0,0,1,.94,10.32,108.2,108.2,0,0,0,.91,14.82,100.62,100.62,0,0,0,2.1,11.85,55.24,55.24,0,0,0,3.52,10.46,8.69,8.69,0,0,1,.41,1.37c-.23-.07-.56-.06-.68-.22C212,90.55,210.24,88.21,208.46,85.89Z"/><path class="cls-4" d="M208.46,85.89c1.78,2.32,3.55,4.66,5.35,7,.12.16.45.15.68.22a.77.77,0,0,1,.12.35l.46.59,1,1.43a32.15,32.15,0,0,1-8.88-1.16,36.56,36.56,0,0,1-15-7.76,6.4,6.4,0,0,0-1-.63l-4.82-6.3a3.78,3.78,0,0,1-.31-.64,10.83,10.83,0,0,1,2.46,1,35.48,35.48,0,0,0,13.31,5.44A55.58,55.58,0,0,0,208.46,85.89Z"/><path class="cls-5" d="M76,108v6.89l-2.23.15v-11.9h3.09l3,8.26,3-8.29h3.16v11.72H83.53v-7.11l-.26,0-2.6,7.23H78.83l-2.3-6.86c.11-.69-.09-1.17-1.11-1.44Z"/><path class="cls-6" d="M122.08,106.07c0,2.88,0,5.46,0,8,0,3.8-3.11,5.62-6.48,3.82a7.19,7.19,0,0,1-.93-.74c.4-1.18,1-1.42,2.11-1,1.79.65,2.12.4,2.71-1.44-2.58.59-3.87.16-4.85-1.59s-.73-4.78.64-6.07a3.2,3.2,0,0,1,2.14-1C118.91,106.28,120.4,106,122.08,106.07Zm-2.42,4.44c0-.33,0-.66,0-1,0-.75-.26-1.41-1-1.42a2.57,2.57,0,0,0-1.67.72,3.06,3.06,0,0,0,0,3.43,2.67,2.67,0,0,0,1.69.68c.76,0,1-.7,1-1.44C119.64,111.16,119.66,110.83,119.66,110.51Z"/><path class="cls-7" d="M103.29,106.58a10.88,10.88,0,0,1,1-.35c2.59-.61,4,.4,4.15,3,.08,1.81,0,3.63,0,5.63l-2.22.12a4.3,4.3,0,0,1-.19-.82c0-1.5,0-3,0-4.49,0-1.24-.45-1.7-1.34-1.67-1.1,0-1.35.75-1.34,1.7,0,1.65,0,3.3,0,5.16l-2.55.14V102.61l2.44-.11Z"/><path class="cls-8" d="M140.51,115H138.3a3,3,0,0,1-.2-.73c0-1.58,0-3.16,0-4.74,0-.88-.38-1.45-1.32-1.44a1.24,1.24,0,0,0-1.35,1.42v5.43l-2.55.15v-8.91a7.22,7.22,0,0,1,1.25-.11,7.34,7.34,0,0,0,3,.08c2-.5,3.27.73,3.43,2.86,0,.33,0,.67,0,1Z"/><path class="cls-9" d="M123.78,108.7c1.1-2.41,2.66-3.12,4.87-2.62,1.53.34,2.36,1.44,2.39,3.29s0,3.61,0,5.57a5.36,5.36,0,0,1-1.93,0,1.64,1.64,0,0,0-1.58,0,2.47,2.47,0,0,1-1.22.11,3,3,0,0,1-2.71-2.17,2.49,2.49,0,0,1,1.74-2.92,7.2,7.2,0,0,1,1.66-.41,14.52,14.52,0,0,1,1.54-.09c0-1.41-.82-1.51-1.82-1.32Zm5,2.41c-.73,0-1.09-.18-1.36-.07a4.7,4.7,0,0,0-1.36.89c-.1.1.14.82.25.83a4,4,0,0,0,1.84-.13C128.48,112.5,128.54,111.82,128.81,111.11Z"/><path class="cls-5" d="M99.65,109.32c-1.06.31-1.85.41-2.5-.59a1.59,1.59,0,0,0-1.43-.56,2.78,2.78,0,0,0-1.14,1.45,3.56,3.56,0,0,0,0,1.72c.23,1.65,1.62,2.21,2.77,1a1.75,1.75,0,0,1,2.19-.47c.36,1.42-.52,2.2-1.54,2.76a4,4,0,0,1-3.82,0c-1.73-.89-2.65-3.51-1.93-5.68s2.12-3.1,4.29-3C98.38,106.14,99.21,107,99.65,109.32Z"/><path class="cls-10" d="M88.13,115.05v-8.92H90.4v8.76Z"/><path class="cls-11" d="M112.88,115h-2.19v-8.83l2.19-.14Z"/><path class="cls-5" d="M90.55,103.62A1.3,1.3,0,0,1,89.2,105,1,1,0,0,1,88,104c-.07-.7,0-1.33.88-1.5A1.34,1.34,0,0,1,90.55,103.62Z"/><path class="cls-5" d="M113.06,103.73a1.36,1.36,0,0,1-1.54,1.28c-.86-.08-1-.67-1-1.4s.53-1.15,1.31-1.09A1.21,1.21,0,0,1,113.06,103.73Z"/><path class="cls-12" d="M76,108l-.53-1.38c1,.27,1.22.75,1.11,1.44Z"/><path class="cls-3" d="M195.06,22.54l-.65-.94C195.13,21.57,195.11,22,195.06,22.54Z"/><path class="cls-2" d="M13.49,74.57l.66.83Z"/><path class="cls-3" d="M195.54,23.05l-.5-.53Z"/><path class="cls-3" d="M215.07,94l-.46-.59Z"/><path class="cls-13" d="M60,57.1H76.51v7.6c-1.71.42-24.81.59-30.31.18,0-1.86-.12-3.76.06-5.62A4.53,4.53,0,0,1,47.54,57c4.1-4.37,8.32-8.62,12.36-13a44.23,44.23,0,0,0,4.43-6,7,7,0,0,0,.73-6A4.45,4.45,0,0,0,57.66,30c-1.19,1.15-1.65,2.23-2.34,5.51H45.47c-.51-6.27,4.4-12.69,11-14.17a19.82,19.82,0,0,1,12.84,1.09,10.43,10.43,0,0,1,6.23,8.67A14.64,14.64,0,0,1,73,41.76a67,67,0,0,1-4.36,5.44c-2.62,3-5.32,5.94-8,8.91A9.38,9.38,0,0,0,60,57.1Z"/><path class="cls-14" d="M152.37,64.89H142.22V33.08l-9.7,2.68a10.49,10.49,0,0,1-.31-3.83c-.05-1.24,0-2.48,0-3.89,6.7-2.26,13.26-4.69,20.17-6.89Z"/><path class="cls-15" d="M101.71,33l-9.85,2.75V28c3.17-1.11,6.47-2.38,9.85-3.43s6.5-2.75,10.2-3.17V64.91h-10.2Z"/><path class="cls-16" d="M91.13,48.05c.3,2.38-2.23,4.09-4.12,4a4.37,4.37,0,0,1-3.89-4.12A4,4,0,0,1,87.4,44,3.71,3.71,0,0,1,91.13,48.05Z"/><path class="cls-17" d="M129.63,47.93a3.85,3.85,0,0,1-4,4.08,4.25,4.25,0,0,1-4-4,4,4,0,0,1,4.18-4A3.59,3.59,0,0,1,129.63,47.93Z"/><path class="cls-18" d="M119.66,110.51c0,.32,0,.65,0,1,0,.74-.23,1.42-1,1.44a2.67,2.67,0,0,1-1.69-.68,3.06,3.06,0,0,1,0-3.43,2.57,2.57,0,0,1,1.67-.72c.75,0,1,.67,1,1.42C119.65,109.85,119.66,110.18,119.66,110.51Z"/><path class="cls-19" d="M128.81,111.11c-.27.71-.33,1.39-.63,1.52a4,4,0,0,1-1.84.13c-.11,0-.35-.73-.25-.83a4.7,4.7,0,0,1,1.36-.89C127.72,110.93,128.08,111.06,128.81,111.11Z"/></g></g></svg>