<svg xmlns="http://www.w3.org/2000/svg" width="193.2" height="26.91" viewBox="0 0 191.2 26.568">
  <g id="Group_2" data-name="Group 2" transform="translate(-133.007 -128.77)">
    <path id="Path_5" data-name="Path 5" d="M159.627,145.07a5.826,5.826,0,0,0-.871-3.1,5.932,5.932,0,0,0,.829-3.085,5.836,5.836,0,0,0-.152-1.4,5.157,5.157,0,0,0-4.726-3.835A5.744,5.744,0,0,0,152.8,129.9c-1.668-1.535-4.854-1.392-6.571-.29a6.569,6.569,0,0,0-4.483-.674,5.149,5.149,0,0,0-3.834,4.724,5.759,5.759,0,0,0-3.744,1.91,5.139,5.139,0,0,0-1.16,3.466,5.833,5.833,0,0,0,.869,3.1,5.92,5.92,0,0,0-.827,3.079,5.857,5.857,0,0,0,.153,1.4,5.151,5.151,0,0,0,4.724,3.835,5.831,5.831,0,0,0,1.909,3.742c1.665,1.536,4.851,1.4,6.569.295a6.592,6.592,0,0,0,4.483.675,5.158,5.158,0,0,0,3.837-4.728,5.766,5.766,0,0,0,3.744-1.91A5.143,5.143,0,0,0,159.627,145.07ZM142.068,130.2a5.057,5.057,0,0,1,3.724.593l.422.4.447-.375a4.674,4.674,0,0,1,5.255.042,4.521,4.521,0,0,1,1.486,2.788c-1.405-.044-4.215-.044-9.946-.044H142.8v4.879h-3.625v-4.452A3.873,3.873,0,0,1,142.068,130.2Zm11.388,14.112h-4.931v4.879l-4.471,0v-4.93h-4.877c0-.492,0-2.42,0-4.47h4.929v-4.88l4.473,0v4.931h4.878C153.458,140.335,153.457,142.263,153.457,144.315ZM134.465,146.3a4.539,4.539,0,0,1-.116-1.082,4.341,4.341,0,0,1,.707-2.639l.4-.423-.376-.447a4.337,4.337,0,0,1-.789-2.664,3.87,3.87,0,0,1,.832-2.589,4.539,4.539,0,0,1,2.782-1.488c-.035,1.392-.035,4.192-.035,9.945v.652h4.877v3.627c-2.325,0-4.451,0-4.451,0A3.874,3.874,0,0,1,134.465,146.3Zm16.1,7.6a5.066,5.066,0,0,1-3.724-.591l-.422-.4-.445.375c-1.165.976-3.977,1.132-5.256-.048a4.518,4.518,0,0,1-1.488-2.782c1.4.039,4.2.039,9.947.039h.652v-4.879h3.626c0,2.325,0,4.455,0,4.455A3.871,3.871,0,0,1,150.565,153.906Zm6.945-6.256a4.524,4.524,0,0,1-2.827,1.493c.076-1.466.08-4.323.08-9.951v-.653h-4.879v-3.624l4.449,0a3.87,3.87,0,0,1,3.835,2.888,4.439,4.439,0,0,1,.117,1.076,4.366,4.366,0,0,1-.709,2.648l-.4.423.377.446a4.331,4.331,0,0,1,.789,2.664A3.881,3.881,0,0,1,157.509,147.65Z" fill="#0f511a"/>
    <path id="Path_6" data-name="Path 6" d="M235.677,142.277v-.069c2.2-.355,5.769-1.983,5.769-5.835s-2.9-5.482-7.149-5.482c-2.031,0-4.374.183-6.39.183-1.165,0-2.118-.113-2.9-.183.213,3.118.284,5.837.284,9.795v4.809c0,3.977-.071,6.712-.284,9.833.779-.072,2.293-.182,3.569-.182,1.764,0,3.327.182,5.212.182,4.227,0,8.263-2.02,8.263-7.1C242.056,143.943,237.84,142.383,235.677,142.277Zm-5.011-9.261a9.09,9.09,0,0,1,1.74-.1c2.817,0,3.813,1.873,3.813,4.134,0,3-2.029,4.488-4.059,4.488h-1.6c0-1.2-.037-2.331-.037-3.606C230.521,136.728,230.591,134.749,230.666,133.016Zm1.882,20.292c-.784,0-1.315-.036-1.958-.071,0-1.241-.07-3.974-.07-6.206,0-1.456.037-2.447.037-3.442.424,0,.885-.035,1.527-.035,2.846,0,4.374,1.633,4.374,4.934C236.459,151.567,234.642,153.308,232.548,153.308Zm28.66-16.537a5.513,5.513,0,0,0-2.3-4.673c-1.24-.886-2.545-1.207-6.126-1.207-2.416,0-3.935.183-5.208.183-1.164,0-2.118-.113-2.9-.183.213,3.118.284,5.849.284,9.812v4.821c0,3.963-.071,6.689-.284,9.805a22.46,22.46,0,0,1,5.8,0c-.215-3.116-.287-5.843-.287-9.805V144.07h.32l6.345,11.258c1.063-.073,2.162-.188,3.224-.188s2.123.114,3.186.188c-2.587-4-5.272-8.037-7.542-12.039C259.226,142.405,261.208,140.211,261.208,136.77Zm-10.238,5.848a6.637,6.637,0,0,1-.783-.071c0-3.224.038-6.411.108-9.637,3.867,0,5.5.46,5.5,4.64C255.791,140.882,254.092,142.618,250.971,142.618Zm24.93-12.147c-8.234,0-13.6,5.685-13.6,12.633,0,8.818,6,12.644,13.5,12.644,7.917,0,13.533-5.7,13.533-12.678C289.328,134.568,283.431,130.471,275.9,130.471Zm-.356,23.074c-3.974,0-7.454-2.61-7.454-10.125,0-6.065,2.838-10.931,7.706-10.931,4.579,0,7.74,3.736,7.74,9.84C283.535,150.016,279.809,153.545,275.544,153.545Zm34.662-22.659c.248,1.595.248,11.231.248,16.862-5.208-5.632-10.274-11.229-15.376-16.862a6.667,6.667,0,0,1-3.169,0c.034,1.7.177,3.864.177,7.052,0,7.223-.531,16.364-.706,17.391a8.542,8.542,0,0,1,1.618-.188,9.259,9.259,0,0,1,1.655.188c-.107-1.307-.212-3.294-.212-8.961,0-2.658,0-5.6.072-8.253q8.178,8.606,15.475,17.213a5.707,5.707,0,0,1,1.374-.188,6.783,6.783,0,0,1,1.443.188c0-9.421,0-14.135.568-24.442a7.914,7.914,0,0,1-1.588.191A7.8,7.8,0,0,1,310.206,130.886Zm9.627,4.959a3.414,3.414,0,0,1,3.68-3.169,4.178,4.178,0,0,1,4.273,3.03h.532c.458-1.552.7-2.4,1.13-3.494a9.081,9.081,0,0,0-5.793-1.741c-4.207,0-7.964,2.7-7.964,7.561,0,8,10.549,6.594,10.549,11.917,0,1.973-1.381,3.6-4.141,3.6a4.657,4.657,0,0,1-4.9-3.807h-.661a35.936,35.936,0,0,1-1.024,4.483,10.036,10.036,0,0,0,5.692,1.527c5.634,0,9.365-3.262,9.365-7.987C330.57,139.761,319.834,141.065,319.834,135.845Zm25.624-5.374c-8.237,0-13.6,5.685-13.6,12.633,0,8.818,6,12.644,13.5,12.644,7.919,0,13.531-5.7,13.531-12.678C358.883,134.568,352.982,130.471,345.457,130.471Zm-.358,23.074c-3.974,0-7.454-2.61-7.454-10.125,0-6.065,2.844-10.931,7.707-10.931,4.578,0,7.741,3.736,7.741,9.84C353.092,150.016,349.362,153.545,345.1,153.545Zm36.243-22.468a7.883,7.883,0,0,1-1.583-.191c.251,1.595.251,11.231.251,16.862-5.211-5.632-10.276-11.229-15.379-16.862a6.649,6.649,0,0,1-3.165,0c.033,1.7.176,3.864.176,7.052,0,7.223-.532,16.364-.708,17.391a8.583,8.583,0,0,1,1.624-.188,9.219,9.219,0,0,1,1.649.188c-.1-1.307-.209-3.294-.209-8.961,0-2.658,0-5.6.07-8.253q8.182,8.606,15.477,17.213a5.718,5.718,0,0,1,1.375-.188,6.743,6.743,0,0,1,1.441.188c0-9.421,0-14.135.567-24.442A7.878,7.878,0,0,1,381.342,131.077Z" transform="translate(-58.722 -1.086)" fill="#0f511a"/>
  </g>
</svg>
